<!-- Generated by IcoMoon.io -->
<svg version="1.1" xmlns="http://www.w3.org/2000/svg" width="64" height="64" viewBox="0 0 64 64">
<title>podfonts</title>
<path d="M48.738 27.68c0-2.68-2.18-4.859-4.86-4.859h-2.575v-5.707c0-2.558-0.911-4.749-2.733-6.57s-4.012-2.733-6.571-2.733-4.749 0.911-6.571 2.733c-1.822 1.822-2.733 4.012-2.733 6.57v5.707h-2.575c-2.68 0-4.859 2.18-4.859 4.859 0 0.111 0.005 0.221 0.012 0.329-0.012 0.088-0.021 0.177-0.021 0.269v3.721c0 4.284 1.43 8.010 4.288 11.179s6.391 4.986 10.597 5.451v3.838h-7.443c-0.504 0-0.94 0.184-1.308 0.552s-0.552 0.804-0.552 1.308 0.184 0.94 0.552 1.308c0.368 0.368 0.805 0.552 1.308 0.552h18.607c0.504 0 0.94-0.184 1.308-0.552s0.553-0.804 0.553-1.308-0.184-0.94-0.553-1.308c-0.368-0.368-0.804-0.552-1.308-0.552h-7.443v-3.838c4.206-0.465 7.738-2.282 10.597-5.451s4.288-6.895 4.288-11.179v-3.721c0-0.092-0.008-0.182-0.020-0.27 0.007-0.109 0.012-0.218 0.012-0.328zM24.995 15.346c0-1.256 1.018-2.274 2.274-2.274s2.274 1.018 2.274 2.274v4.159c0 1.256-1.018 2.274-2.274 2.274s-2.274-1.018-2.274-2.274v-4.159zM41.202 41.202c-2.549 2.549-5.616 3.823-9.202 3.823s-6.653-1.274-9.202-3.823c-2.453-2.453-3.724-5.386-3.817-8.798 0.366 0.088 0.747 0.136 1.14 0.136h2.59c0.121 2.328 1.026 4.338 2.718 6.031 1.822 1.822 4.012 2.733 6.571 2.733s4.748-0.911 6.571-2.733c1.692-1.692 2.597-3.703 2.718-6.031h2.59c0.393 0 0.774-0.048 1.141-0.136-0.093 3.413-1.364 6.346-3.817 8.798zM43.878 31.46h-23.757c-2.084 0-3.779-1.695-3.779-3.779s1.695-3.779 3.779-3.779h23.757c2.084 0 3.78 1.695 3.78 3.779s-1.696 3.779-3.78 3.779z"></path>
<path d="M21.143 26.089c-0.117-0.101-0.25-0.178-0.4-0.232s-0.31-0.080-0.479-0.080h-2.058c-0.012 0-0.034 0-0.067 0.002s-0.058 0.002-0.076 0.004c-0.018 0.002-0.039 0.004-0.062 0.008s-0.041 0.009-0.052 0.018c-0.011 0.009-0.017 0.019-0.017 0.030v3.375c0 0.154 0.022 0.289 0.066 0.405h1.439c0.052 0 0.081-0.030 0.086-0.091v-0.284c0-0.329 0.007-0.627 0.020-0.892h0.486c0.096-0.007 0.188-0.017 0.275-0.030s0.182-0.035 0.285-0.065c0.103-0.029 0.197-0.065 0.283-0.108s0.169-0.098 0.251-0.167 0.151-0.148 0.208-0.234 0.102-0.192 0.137-0.315c0.034-0.123 0.052-0.259 0.052-0.408 0-0.201-0.034-0.382-0.101-0.542s-0.16-0.291-0.276-0.393zM20.091 27.233c-0.027 0.061-0.063 0.112-0.107 0.152s-0.096 0.072-0.157 0.097c-0.061 0.025-0.123 0.043-0.186 0.053s-0.129 0.015-0.199 0.015l-0.081-0.112c0-0.54 0.029-0.824 0.086-0.851 0.055 0 0.099 0 0.133 0.001s0.079 0.004 0.132 0.010c0.053 0.006 0.097 0.014 0.132 0.025s0.072 0.028 0.112 0.049 0.071 0.048 0.093 0.077c0.023 0.029 0.043 0.068 0.058 0.114s0.024 0.099 0.024 0.159c-0 0.078-0.014 0.148-0.041 0.209z"></path>
<path d="M24.804 26.467c-0.078-0.1-0.175-0.186-0.293-0.257s-0.239-0.124-0.366-0.157c-0.127-0.033-0.242-0.057-0.346-0.071s-0.203-0.021-0.297-0.021c-0.378 0.059-0.65 0.123-0.816 0.193h-0.096c-0.166 0.067-0.289 0.149-0.37 0.243l-0.061 0.061c-0.17 0.171-0.289 0.383-0.355 0.636-0.029 0.108-0.059 0.3-0.091 0.575l0.005 0.056v0.152c0.013 0.22 0.053 0.42 0.118 0.602s0.15 0.336 0.255 0.465c0.105 0.128 0.226 0.237 0.364 0.325s0.285 0.152 0.443 0.194c0.158 0.041 0.324 0.062 0.498 0.062 0.118 0 0.237-0.008 0.356-0.023s0.244-0.041 0.374-0.077c0.13-0.036 0.253-0.089 0.369-0.159s0.213-0.152 0.29-0.248l0.101-0.127c0.223-0.306 0.334-0.701 0.334-1.186 0-0.431-0.139-0.819-0.416-1.166v-0.071zM23.857 27.744c0 0.081-0.001 0.15-0.004 0.208s-0.008 0.124-0.015 0.2c-0.007 0.076-0.020 0.139-0.039 0.19s-0.042 0.101-0.071 0.15c-0.029 0.049-0.066 0.085-0.113 0.109s-0.101 0.036-0.163 0.036c-0.226 0-0.34-0.297-0.34-0.892v-0.112c0-0.5 0.127-0.75 0.38-0.75 0.073 0 0.134 0.025 0.185 0.075s0.088 0.116 0.113 0.198c0.024 0.082 0.042 0.164 0.052 0.245s0.015 0.166 0.015 0.253v0.091z"></path>
<path d="M28.559 26.553c-0.113-0.125-0.255-0.226-0.424-0.304s-0.347-0.132-0.532-0.162c-0.185-0.030-0.393-0.046-0.625-0.046h-0.649c-0.075 0-0.185 0.008-0.333 0.023s-0.258 0.023-0.331 0.023c-0.005 0-0.014-0.001-0.028-0.003s-0.023-0.003-0.028-0.003v3.365h1.738c0.12-0.007 0.24-0.026 0.36-0.058s0.239-0.078 0.36-0.137c0.12-0.059 0.231-0.136 0.333-0.23s0.193-0.201 0.273-0.32c0.079-0.12 0.142-0.263 0.187-0.43s0.069-0.346 0.069-0.538c0-0.264-0.034-0.495-0.1-0.694s-0.157-0.361-0.27-0.486zM27.581 27.724c0 0.075-0.002 0.141-0.006 0.199s-0.012 0.126-0.024 0.204c-0.012 0.078-0.031 0.145-0.057 0.203s-0.059 0.112-0.099 0.165c-0.040 0.052-0.093 0.093-0.158 0.12s-0.142 0.042-0.228 0.042h-0.122v-1.794h0.076v-0.056c0.051 0 0.094 0.002 0.13 0.005s0.075 0.011 0.118 0.021c0.043 0.011 0.081 0.027 0.113 0.048s0.065 0.050 0.098 0.089c0.033 0.038 0.063 0.083 0.090 0.136 0.029 0.073 0.047 0.16 0.056 0.263s0.014 0.161 0.015 0.172v0.182z"></path>
<path d="M32.081 25.727c-0.014 0-0.034 0.001-0.061 0.003s-0.048 0.003-0.061 0.003c-0.102 0-0.244-0.002-0.427-0.005s-0.322-0.005-0.415-0.005c-0.135 0-0.334 0.003-0.599 0.008s-0.463 0.008-0.597 0.008c-0.020 0-0.057-0.001-0.11-0.003s-0.094-0.003-0.123-0.003c-0.263 0-0.395 0.029-0.395 0.086v3.385c0 0.010-0 0.036-0.002 0.076s-0.001 0.068 0 0.082c0.001 0.014 0.003 0.038 0.005 0.071s0.006 0.059 0.012 0.077 0.012 0.040 0.022 0.063c0.009 0.024 0.020 0.046 0.034 0.066 0.162 0 0.402-0.002 0.72-0.005s0.557-0.005 0.72-0.005c0.040-0.007 0.066-0.018 0.076-0.034s0.015-0.049 0.015-0.098v-0.314c0-0.103-0.003-0.258-0.008-0.466s-0.007-0.363-0.007-0.466c0.282-0.005 0.594-0.018 0.937-0.041 0.020 0 0.048 0.002 0.084 0.005s0.060 0.005 0.073 0.005c0.061 0 0.105-0.012 0.134-0.038s0.043-0.075 0.043-0.149v-0.846c0-0.024-0.031-0.041-0.092-0.053s-0.132-0.018-0.212-0.018c-0.265 0-0.59 0.014-0.973 0.041 0-0.017-0.002-0.029-0.005-0.036v-0.035c0-0.032 0.001-0.079 0.003-0.139s0.003-0.107 0.003-0.139h0.35c0.041 0 0.143-0.001 0.307-0.003s0.299-0.004 0.405-0.006c0.106-0.003 0.209-0.008 0.307-0.016v-0.887c0-0.066-0.012-0.11-0.036-0.133s-0.066-0.034-0.127-0.034z"></path>
<path d="M35.38 26.467c-0.078-0.1-0.175-0.186-0.293-0.257s-0.239-0.124-0.366-0.157-0.242-0.057-0.346-0.071c-0.104-0.014-0.203-0.021-0.298-0.021-0.378 0.059-0.65 0.123-0.816 0.193h-0.096c-0.166 0.067-0.289 0.149-0.37 0.243l-0.061 0.061c-0.17 0.171-0.289 0.383-0.355 0.636-0.029 0.108-0.059 0.3-0.091 0.575l0.005 0.056v0.152c0.013 0.22 0.053 0.42 0.118 0.602s0.15 0.336 0.255 0.465c0.105 0.128 0.226 0.237 0.364 0.325s0.285 0.152 0.443 0.194c0.158 0.041 0.324 0.062 0.498 0.062 0.118 0 0.237-0.008 0.356-0.023s0.244-0.041 0.374-0.077 0.253-0.089 0.369-0.159c0.115-0.069 0.213-0.152 0.29-0.248l0.102-0.127c0.223-0.306 0.334-0.701 0.334-1.186 0-0.431-0.138-0.819-0.416-1.166v-0.071zM34.433 27.744c0 0.081-0.002 0.15-0.004 0.208s-0.008 0.124-0.015 0.2-0.020 0.139-0.039 0.19c-0.019 0.051-0.042 0.101-0.071 0.15s-0.066 0.085-0.112 0.109c-0.047 0.024-0.101 0.036-0.164 0.036-0.226 0-0.34-0.297-0.34-0.892v-0.112c0-0.5 0.127-0.75 0.38-0.75 0.072 0 0.134 0.025 0.185 0.075s0.088 0.116 0.113 0.198c0.024 0.082 0.041 0.164 0.052 0.245s0.015 0.166 0.015 0.253v0.091z"></path>
<path d="M39.515 26.071h-0.866c-0.078 0-0.135 0.003-0.172 0.010s-0.056 0.024-0.056 0.051c0 0.25-0.017 0.672-0.050 1.267v0.375c-0.034-0.095-0.093-0.266-0.18-0.516s-0.161-0.462-0.223-0.637c-0.063-0.176-0.124-0.346-0.185-0.509l-0.003-0.018c-0.003-0.015-0.020-0.029-0.050-0.041l-0.008-0.003h-0.426c-0.123 0-0.308 0.004-0.554 0.010s-0.426 0.010-0.541 0.010v-0.010c-0.024 0-0.044 0.030-0.061 0.091v0.547c-0.008 0.287-0.015 0.73-0.020 1.328s-0.012 1.037-0.020 1.318l0.112 0.112h1.044c0.050-0.012 0.082-0.027 0.094-0.047s0.018-0.055 0.018-0.105v-0.517c0.005-0.11 0.010-0.275 0.015-0.495s0.010-0.387 0.015-0.498c0.044 0.145 0.093 0.295 0.147 0.45s0.119 0.334 0.194 0.538c0.075 0.205 0.129 0.352 0.161 0.441 0.047 0.135 0.086 0.206 0.117 0.213h1.419c0.088 0 0.135-0.029 0.142-0.086v-0.922c0-0.098-0.002-0.25-0.005-0.456s-0.005-0.368-0.005-0.486v-0.268c0-0.122 0.002-0.216 0.005-0.284 0-0.018 0.001-0.065 0.004-0.139s0.005-0.147 0.006-0.218 0.002-0.145 0-0.223c-0.002-0.078-0.008-0.142-0.019-0.194s-0.027-0.081-0.047-0.088z"></path>
<path d="M42.769 26.082h-2.949v0.912c0 0.029 0.017 0.049 0.050 0.062s0.069 0.019 0.107 0.019h0.633c0 0.013 0.001 0.044 0.002 0.090s0.003 0.077 0.003 0.093c0 0.013-0.001 0.035-0.003 0.063s-0.002 0.050-0.002 0.063v0.066c0 0.186-0.006 0.439-0.019 0.76s-0.020 0.53-0.021 0.628v0.547l0.101 0.071h0.142c0.041 0 0.097-0.001 0.169-0.003s0.127-0.003 0.166-0.003h0.203c0.014 0 0.034-0.001 0.060-0.003s0.048-0.003 0.061-0.003c0 0.013 0.108 0.020 0.324 0.020h0.162l0.019-0.004 0.015-0.004 0.013-0.006 0.010-0.005 0.007-0.008 0.005-0.009 0.005-0.010 0.002-0.010 0.003-0.013 0.002-0.012v-2.331h0.719c0.044 0 0.068-0.020 0.071-0.061v-0.811c0-0.030-0.003-0.053-0.010-0.070s-0.024-0.026-0.051-0.032z"></path>
<path d="M45.837 27.68c-0.066-0.071-0.148-0.136-0.247-0.194s-0.193-0.104-0.28-0.138c-0.088-0.034-0.187-0.066-0.296-0.096l-0.373-0.091c-0.020-0.010-0.055-0.022-0.105-0.034s-0.095-0.024-0.135-0.033c-0.039-0.009-0.075-0.025-0.106-0.048s-0.047-0.050-0.047-0.082c0-0.029 0.019-0.052 0.056-0.071s0.072-0.030 0.102-0.034c0.031-0.004 0.058-0.006 0.080-0.006 0.071 0 0.129 0.007 0.175 0.020s0.079 0.030 0.1 0.051c0.021 0.020 0.040 0.041 0.057 0.061s0.040 0.037 0.069 0.050c0.029 0.014 0.066 0.020 0.111 0.020 0.061 0 0.146 0.002 0.256 0.005s0.188 0.005 0.235 0.005h0.431l0.071-0.101c-0.012-0.093-0.022-0.159-0.029-0.199s-0.025-0.093-0.052-0.161-0.063-0.123-0.106-0.167c-0.122-0.147-0.3-0.267-0.536-0.358s-0.492-0.138-0.767-0.138c-0.155 0-0.306 0.012-0.451 0.037s-0.288 0.066-0.428 0.124c-0.14 0.058-0.262 0.131-0.366 0.216s-0.187 0.197-0.251 0.332c-0.063 0.135-0.095 0.287-0.095 0.456 0 0.255 0.081 0.466 0.242 0.632s0.425 0.303 0.792 0.412h0.152c0.022 0.007 0.071 0.019 0.147 0.038s0.136 0.035 0.181 0.048 0.096 0.031 0.153 0.053c0.058 0.022 0.101 0.046 0.129 0.073s0.043 0.056 0.043 0.086c0 0.066-0.026 0.116-0.080 0.151s-0.112 0.052-0.179 0.052c-0.061 0-0.11-0.010-0.147-0.030s-0.063-0.045-0.077-0.075c-0.014-0.029-0.027-0.059-0.038-0.089s-0.026-0.055-0.044-0.075c-0.019-0.020-0.045-0.030-0.078-0.030h-0.116c-0.237 0-0.404 0.002-0.502 0.005-0.010-0.003-0.022-0.005-0.035-0.005h-0.066c-0.044 0-0.078 0.002-0.101 0.005h-0.258c-0.010 0-0.025-0.001-0.046-0.003s-0.035-0.003-0.046-0.003c-0.037 0-0.055 0.020-0.055 0.061 0.013 0.169 0.057 0.321 0.13 0.456s0.187 0.26 0.341 0.375v0.030c0.181 0.142 0.537 0.226 1.069 0.253 0.12-0.009 0.226-0.018 0.318-0.029s0.197-0.028 0.314-0.050c0.117-0.023 0.221-0.053 0.31-0.091s0.178-0.085 0.266-0.142c0.088-0.057 0.164-0.128 0.228-0.213s0.114-0.182 0.149-0.29v0.005c0.041-0.122 0.061-0.26 0.061-0.416 0-0.128-0.022-0.246-0.066-0.353s-0.099-0.196-0.165-0.267z"></path>
<path d="M50.625 4h-37.25c-5.178 0-9.375 4.197-9.375 9.375v37.25c0 5.178 4.197 9.375 9.375 9.375h37.25c5.178 0 9.375-4.197 9.375-9.375v-37.25c0-5.178-4.197-9.375-9.375-9.375zM58.125 50.625c0 4.136-3.364 7.5-7.5 7.5h-37.25c-4.136 0-7.5-3.364-7.5-7.5v-37.25c0-4.136 3.364-7.5 7.5-7.5h37.25c4.136 0 7.5 3.364 7.5 7.5v37.25z"></path>
</svg>
