<!-- Generated by IcoMoon.io -->
<svg version="1.1" xmlns="http://www.w3.org/2000/svg" width="64" height="64" viewBox="0 0 64 64">
<title>a-castaway</title>
<path d="M29.39 25.631c0.287-0.666 0.588-1.327 0.857-2.001 0.282-0.706 0.155-1.067-0.472-1.491-1.271-0.86-1.744-2.446-1.131-3.793 0.618-1.356 2.128-2.093 3.576-1.706 1.244 0.332 2.023 1.169 2.24 2.424 0.229 1.318-0.279 2.409-1.419 3.087-0.63 0.375-0.621 0.843-0.445 1.357 0.248 0.724 0.591 1.415 0.893 2.121 2.322-0.577 4.657-3.494 4.289-6.64-0.395-3.373-3.188-5.743-6.369-5.717-1.757 0.014-3.254 0.726-4.534 2.010-3.171 3.181-1.885 8.874 2.514 10.35z"></path>
<path d="M28.82 32.501c0.576 0.028 0.961-0.452 1.486-0.559 0.118-0.936 0.027-1.872-0.074-2.838-0.471 1.133-0.942 2.265-1.413 3.397z"></path>
<path d="M50.625 4h-37.25c-5.178 0-9.375 4.197-9.375 9.375v37.25c0 5.178 4.197 9.375 9.375 9.375h37.25c5.178 0 9.375-4.197 9.375-9.375v-37.25c0-5.178-4.197-9.375-9.375-9.375zM41.93 49.906c-0.502-0.017-0.81-0.276-0.993-0.719-0.254-0.615-0.516-1.227-0.753-1.849-0.108-0.283-0.24-0.328-0.508-0.193-2.282 1.156-4.568 2.306-6.858 3.446-0.252 0.125-0.303 0.296-0.3 0.547 0.010 0.833 0.010 1.665 0.001 2.498-0.008 0.712-0.451 1.201-1.070 1.207s-1.080-0.487-1.088-1.19c-0.010-0.812-0.026-1.625 0.007-2.435 0.015-0.379-0.138-0.55-0.456-0.707-2.199-1.090-4.393-2.189-6.579-3.306-0.357-0.182-0.538-0.179-0.677 0.235-0.193 0.57-0.429 1.127-0.663 1.682-0.292 0.692-0.851 0.957-1.439 0.703-0.55-0.237-0.747-0.807-0.468-1.484 1.661-4.038 3.334-8.071 4.997-12.108 0.356-0.863 0.686-1.737 1.027-2.606 0.063-0.143 0.125-0.286 0.188-0.429 0.658-1.507 1.29-3.025 1.856-4.569-2.328-0.726-4.011-2.262-5.124-4.363-1.765-3.332-1.656-6.694 0.366-9.878 1.531-2.41 3.797-3.843 6.645-4.261 3.477-0.51 6.387 0.627 8.712 3.209 1.291 1.434 1.998 3.161 2.261 5.092 0.359 2.639-0.323 4.993-1.909 7.063-1.121 1.464-2.516 2.645-4.37 3.135 0.554 1.508 1.158 2.994 1.821 4.457 0.063 0.139 0.123 0.278 0.187 0.416 0.63 1.895 1.477 3.704 2.231 5.55 1.258 3.080 2.516 6.16 3.828 9.217 0.399 0.93-0.208 1.66-0.871 1.638z"></path>
<path d="M32.856 43.41c-0.259-0.010-0.317 0.123-0.33 0.29-0.004 0.056-0.004 0.115-0.004 0.175 0.001 1.579 0.009 3.159-0.005 4.738-0.003 0.382 0.102 0.421 0.422 0.256 1.182-0.606 2.38-1.183 3.559-1.796 0.584-0.304 1.219-0.517 1.735-0.945-1.814-0.863-3.63-1.721-5.377-2.718z"></path>
<path d="M34.405 34.508c0.137 0.003 0.239-0.019 0.304-0.064-0.066 0.045-0.167 0.067-0.304 0.064-0.618-0.308-1.171-0.759-1.884-0.859 0 0.585 0 1.169 0 1.873 0.176-0.094 0.344-0.185 0.508-0.273 0.49-0.264 0.933-0.502 1.376-0.741z"></path>
<path d="M30.36 43.804c0-0.239-0.046-0.417-0.342-0.378-1.738 0.983-3.546 1.83-5.341 2.701h-0c0.023 0.033 0.039 0.082 0.071 0.098 1.756 0.892 3.515 1.778 5.268 2.674 0.304 0.155 0.346 0.032 0.346-0.24-0.006-1.618-0.004-3.237-0.001-4.855z"></path>
<path d="M37.306 41.064c-0.954 0.535-2.010 0.882-2.891 1.553 0.503 0.239 1.004 0.481 1.51 0.715 1.085 0.503 2.106 1.14 3.237 1.547-0.482-1.173-0.959-2.348-1.452-3.517-0.066-0.157-0.077-0.481-0.404-0.298z"></path>
<path d="M25.522 41.044c-0.274-0.15-0.291 0.165-0.351 0.308-0.486 1.171-0.957 2.349-1.432 3.524 0.264 0.002 0.462-0.166 0.681-0.272 1.353-0.657 2.701-1.322 4.052-1.985-0.898-0.684-1.972-1.039-2.95-1.575z"></path>
<path d="M30.354 41.791c0-1.202 0-2.296 0-3.391-0.223-0.009-0.389 0.133-0.573 0.223-0.933 0.456-1.863 0.917-2.793 1.377 1.021 0.739 2.205 1.156 3.366 1.791z"></path>
<path d="M35.288 39.722c-0.928-0.424-1.786-0.994-2.762-1.317 0 1.102 0 2.203 0 3.407 1.188-0.68 2.37-1.076 3.375-1.812-0.204-0.093-0.409-0.185-0.613-0.278z"></path>
<path d="M29.797 37.001c-0.602-0.555-1.397-0.765-2.087-1.163-0.282-0.162-0.297 0.117-0.359 0.267-0.349 0.839-0.688 1.682-1.030 2.524 0.244 0.011 0.428-0.142 0.63-0.24 0.95-0.459 1.898-0.924 2.846-1.387z"></path>
<path d="M33.091 37c0.282 0.129 0.563 0.258 0.846 0.386 0.885 0.398 1.693 0.961 2.634 1.241-0.343-0.842-0.683-1.686-1.033-2.526-0.061-0.147-0.067-0.431-0.357-0.262-0.129 0.075-0.262 0.144-0.397 0.209-0.585 0.282-1.205 0.499-1.694 0.952z"></path>
<path d="M34.067 32.501c-0.481-1.156-0.962-2.312-1.442-3.468-0.007 0.124-0.014 0.248-0.023 0.371-0.059 0.862-0.142 1.699-0.023 2.533 0.523 0.118 0.911 0.59 1.489 0.564z"></path>
<path d="M28.482 34.506c0.49 0.261 0.986 0.513 1.469 0.785 0.357 0.202 0.422 0.046 0.412-0.283-0.003-0.114-0.005-0.227-0.006-0.341s-0.001-0.228-0-0.341 0.003-0.456 0.004-0.683z"></path>
</svg>
