<!-- Generated by IcoMoon.io -->
<svg version="1.1" xmlns="http://www.w3.org/2000/svg" width="64" height="64" viewBox="0 0 64 64">
<title>a-castro</title>
<path d="M59.043 12.065c-1.203-3.304-3.805-5.906-7.109-7.109-3.026-0.957-5.837-0.957-11.459-0.957h-16.952c-5.622 0-8.433 0-11.459 0.957-3.304 1.202-5.906 3.805-7.109 7.109-0.957 3.026-0.957 5.837-0.957 11.459v16.952c0 5.622 0 8.433 0.957 11.459 1.202 3.304 3.805 5.906 7.109 7.108 3.026 0.957 5.837 0.957 11.459 0.957h16.952c5.622 0 8.433 0 11.459-0.957 3.304-1.202 5.906-3.805 7.109-7.108 0.957-3.026 0.957-5.837 0.957-11.459v-16.952c0-5.622 0-8.433-0.957-11.459zM32.027 56.343c-13.456 0-24.363-10.897-24.363-24.34s10.908-24.34 24.363-24.34 24.363 10.897 24.363 24.34-10.908 24.34-24.363 24.34z"></path>
<path d="M31.985 14.598c-9.562 0-17.313 7.744-17.313 17.296 0 5.769 2.828 10.877 7.173 14.019l4.088-5.665c-2.584-1.874-4.266-4.916-4.266-8.35 0-5.695 4.621-10.312 10.322-10.312s10.322 4.617 10.322 10.312c0 3.419-1.666 6.45-4.232 8.326l4.085 5.66c4.323-3.145 7.133-8.239 7.133-13.99-0-9.552-7.751-17.295-17.313-17.295z"></path>
<path d="M36.189 31.881c0 2.298-1.865 4.161-4.165 4.161s-4.165-1.863-4.165-4.161c0-2.298 1.865-4.161 4.165-4.161s4.165 1.863 4.165 4.161z"></path>
</svg>
