<!-- Generated by IcoMoon.io -->
<svg version="1.1" xmlns="http://www.w3.org/2000/svg" width="64" height="64" viewBox="0 0 64 64">
<title>a-doggcatcher</title>
<path d="M20.824 24.352c-1.12-0.035-2.242 0.006-3.363-0.013-0.305-0.005-0.36 0.098-0.358 0.376 0.010 2.422 0.006 4.844 0.006 7.266 0.001 0 0.001 0 0.002 0 0 2.462 0 4.924-0.001 7.386 0 0.166-0.019 0.322 0.232 0.319 1.38-0.019 2.762 0.010 4.141-0.055 1.603-0.075 3.044-0.659 4.272-1.687 1.59-1.331 2.522-3.023 2.768-5.113 0.161-1.368-0.018-2.667-0.591-3.887-1.406-2.994-3.824-4.489-7.108-4.593z"></path>
<path d="M41.141 30.13c-1.068 0.031-1.846 0.783-1.88 1.9 0.001 1.020 0.853 1.88 1.867 1.884 1.022 0.004 1.914-0.88 1.907-1.887-0.008-1.027-0.869-1.927-1.893-1.897z"></path>
<path d="M55.532 5.082h-35.559l-15.848 15.799c-0.041 0.041-0.083 0.079-0.125 0.118v33.453c0 2.467 2.001 4.466 4.468 4.466h47.064c2.468 0 4.468-2 4.468-4.466v-44.904c-0-2.467-2.001-4.467-4.468-4.467zM49.799 41.107c-1.588 1.447-3.4 2.507-5.482 3.040-2.441 0.625-4.873 0.549-7.269-0.284-2.372-0.825-4.317-2.236-5.852-4.218-0.042-0.055-0.076-0.116-0.105-0.16-0.634 0.659-1.184 1.297-1.802 1.86-1.686 1.537-3.659 2.542-5.905 2.95-0.881 0.159-1.787 0.235-2.683 0.245-2.683 0.031-5.367 0.011-8.050 0.009-0.414-0-0.415-0.004-0.415-0.4-0.007-8.080-0.013-16.16-0.019-24.241-0-0.457 0-0.459 0.466-0.459 3.034 0.001 6.068-0.031 9.101 0.025 0.852 0.016 1.705 0.265 2.549 0.448 1.114 0.241 2.127 0.741 3.096 1.325 1.279 0.77 2.394 1.735 3.316 2.915 0.043 0.055 0.091 0.106 0.138 0.158 0.045 0.050 0.092 0.099 0.14 0.151 0.439-0.481 0.853-0.967 1.302-1.418 1.267-1.272 2.761-2.208 4.433-2.84 0.874-0.33 1.778-0.601 2.723-0.647 0.956-0.047 1.915-0.122 2.868-0.081 0.659 0.028 1.318 0.202 1.965 0.36 0.941 0.23 1.839 0.589 2.695 1.046 1.029 0.549 1.964 1.232 2.821 2.022 0.178 0.165 0.216 0.299 0.016 0.494-1.017 0.992-2.027 1.993-3.028 3.002-0.178 0.179-0.289 0.177-0.467 0.009-1.067-1.009-2.336-1.652-3.769-1.921-1.645-0.309-3.246-0.11-4.761 0.631-1.95 0.954-3.27 2.476-3.963 4.521-0.352 1.041-0.454 2.116-0.306 3.225 0.156 1.161 0.497 2.24 1.129 3.224 0.944 1.471 2.231 2.517 3.879 3.113 1.288 0.466 2.612 0.585 3.953 0.336 1.413-0.262 2.668-0.874 3.736-1.849 0.347-0.316 0.344-0.307 0.66 0.012 0.957 0.967 1.915 1.933 2.884 2.888 0.195 0.193 0.214 0.318 0.005 0.509zM48.58 30.134c-0.196-0.779-0.504-1.516-0.969-2.174-0.171-0.242-0.169-0.403 0.041-0.617 0.507-0.516 0.531-0.525 0.906 0.104 0.847 1.422 1.301 2.954 1.27 5.338-0.028 0.999-0.51 2.582-1.451 4.023-0.206 0.315-0.236 0.315-0.511 0.048-0.511-0.496-0.477-0.354-0.126-0.943 0.529-0.886 0.832-1.843 0.988-2.868 0.151-0.99 0.094-1.951-0.148-2.91zM46.948 32.104c-0.081 3.168-2.664 5.754-5.905 5.706-3.188-0.047-5.745-2.722-5.699-5.87-0.032-3.216 2.797-5.868 6-5.749 3.101 0.115 5.686 2.74 5.605 5.913zM50.412 38.915c-0.157 0.21-0.266 0.215-0.447 0.045-0.474-0.444-0.476-0.437-0.118-0.967 0.998-1.477 1.585-3.098 1.782-4.875 0.273-2.466-0.304-4.715-1.617-6.795-0.117-0.186-0.251-0.362-0.391-0.531-0.128-0.155-0.114-0.29 0.020-0.423 0.664-0.659 0.537-0.642 1.012 0.032 1.061 1.505 1.729 3.169 1.957 5.001 0.066 0.535 0.102 1.073 0.134 1.426-0.078 2.727-0.798 5.042-2.332 7.088z"></path>
<path d="M41.145 27.252c-2.762-0.014-4.769 2.134-4.787 4.688-0.021 2.809 2.141 4.808 4.749 4.869 2.707 0.003 4.893-2.178 4.82-4.949-0.065-2.438-1.957-4.593-4.781-4.607zM44.064 32.185c-0.076 1.361-1.308 2.799-3.043 2.741-1.517-0.050-2.861-1.44-2.79-2.917-0.060-1.611 1.396-2.947 2.939-2.925 1.614 0.023 2.989 1.406 2.894 3.101z"></path>
</svg>
