<!-- Generated by IcoMoon.io -->
<svg version="1.1" xmlns="http://www.w3.org/2000/svg" width="64" height="64" viewBox="0 0 64 64">
<title>a-downcast</title>
<path d="M22.963 27.91c-0.311-0.009-0.625 0.020-0.935-0.003-0.529-0.039-0.686 0.216-0.677 0.708 0.020 1.143 0.006 2.286 0.006 3.429 0.003 0 0.006 0 0.009 0 0 1.164 0.019 2.328-0.009 3.492-0.012 0.51 0.203 0.706 0.68 0.735 0.564 0.034 1.122-0.007 1.679-0.075 1.243-0.152 2.107-0.816 2.599-1.96 0.352-0.819 0.412-1.685 0.388-2.565-0.062-2.354-1.391-3.697-3.74-3.761z"></path>
<path d="M32 4c-15.464 0-28 12.536-28 28s12.536 28 28 28c15.464 0 28-12.536 28-28s-12.536-28-28-28zM29.993 34.783c-0.772 2.467-2.476 3.863-4.967 4.385-0.853 0.179-1.703 0.229-2.575 0.202-1.346-0.042-2.696-0.026-4.042 0.026-0.5 0.019-0.596-0.179-0.596-0.595 0.003-1.541-0.007-3.082-0.011-4.623-0.002-0.687-0-1.375-0-2.062 0.001 0 0.003 0 0.004 0 0-2.166-0.003-4.332 0.001-6.498 0.001-0.733 0.111-0.847 0.823-0.844 1.729 0.006 3.46-0.043 5.185 0.045 3.78 0.193 6.235 2.656 6.491 6.438 0.081 1.188 0.049 2.371-0.313 3.526zM33.089 42.247c-0.664-0.661-1.319-1.331-1.987-1.988-0.368-0.362-0.374-0.694-0.017-1.075 3.306-3.531 3.936-10.154 0.065-14.308-0.41-0.44-0.328-0.794 0.065-1.174 0.644-0.622 1.283-1.25 1.91-1.888 0.558-0.568 0.837-0.574 1.379 0.034 1.408 1.576 2.366 3.407 3.038 5.399 0.51 1.51 0.794 3.055 0.761 4.658-0.061 3.882-1.287 7.33-3.859 10.273-0.565 0.646-0.767 0.658-1.356 0.071zM46.196 31.743c-0.042 6.026-1.957 11.349-6.004 15.862-0.758 0.845-0.887 0.837-1.662 0.045-0.524-0.536-1.066-1.054-1.603-1.578-0.677-0.662-0.69-0.788-0.065-1.482 3.5-3.881 5.054-8.48 4.839-13.649-0.181-4.352-1.82-8.17-4.702-11.443-0.694-0.789-0.7-0.856 0.064-1.619 0.545-0.545 1.090-1.090 1.629-1.641 0.622-0.636 0.812-0.645 1.412 0.003 3.599 3.887 5.534 8.507 6.039 13.753 0.024 0.249 0.044 0.498 0.050 0.748 0.008 0.333 0.002 0.666 0.002 1z"></path>
</svg>
