<!-- Generated by IcoMoon.io -->
<svg version="1.1" xmlns="http://www.w3.org/2000/svg" width="64" height="64" viewBox="0 0 64 64">
<title>a-laughable</title>
<path d="M48.702 45.486c-0.070 4.304-3.191 7.267-7.066 6.495-2.348-0.468-4.66-1.482-6.776-2.638-2.202-1.202-4.131-2.898-6.214-4.328-2.073-1.422-4.323-2.322-6.912-2.165-1.44 0.087-2.689 0.605-2.835 2.102-0.086 0.877 0.366 2.426 0.929 2.614 1.071 0.357 2.461 0.157 3.588-0.21 0.682-0.222 1.079-1.239 1.689-1.807 0.257-0.239 0.733-0.243 1.111-0.354 0.083 0.328 0.296 0.688 0.227 0.981-0.533 2.251-3.317 4.097-5.866 3.943-2.427-0.148-4.294-1.633-4.63-3.684-0.457-2.786 0.75-5.282 3.463-5.926 1.989-0.472 4.293-0.538 6.249-0.012 2.779 0.748 5.373 2.193 8.035 3.364 1.539 0.677 3.024 1.489 4.593 2.084 3.481 1.321 6.991 2.129 10.416-0.458z"></path>
<path d="M29.724 40.372c-1.308-0.387-2.336-0.691-3.498-1.034 1.218-5.611 2.406-11.081 3.608-16.614 1.805 0.492 3.512 0.958 5.463 1.489-1.819 5.274-3.659 10.61-5.573 16.159zM32.107 28.268c-0.592-0.158-1.081-0.289-1.618-0.433-0.253 1.088-0.512 1.96-0.634 2.852-0.049 0.356 0.208 0.753 0.325 1.131 0.338-0.276 0.818-0.486 0.984-0.842 0.378-0.81 0.601-1.692 0.942-2.709z"></path>
<path d="M29.99 15.294c0.685-3.339 2.802-4.626 5.783-3.856 3.090 0.798 4.278 2.878 3.292 6.31-2.985-0.807-5.978-1.616-9.075-2.454z"></path>
<path d="M29.553 16.651c3.103 0.865 6.069 1.691 9.034 2.517-0.672 2.595-2.635 3.713-5.325 3.097-3.005-0.688-4.337-2.622-3.708-5.614z"></path>
</svg>
