<!-- Generated by IcoMoon.io -->
<svg version="1.1" xmlns="http://www.w3.org/2000/svg" width="64" height="64" viewBox="0 0 64 64">
<title>a-playerfm</title>
<path d="M39.088 30.073c0.879 1.494 3.516 0.439 2.988-1.318-0.879-2.461-2.813-4.395-5.010-5.801-0.615-0.352-1.231-0.703-1.934-0.615-1.494 0.176-1.934 2.461-0.528 3.076 1.934 0.967 3.516 2.725 4.483 4.659l0-0zM44.449 28.579c0.264 0.879 1.23 1.406 2.109 1.142 0.879-0.176 1.494-1.23 1.143-2.109-1.67-4.746-5.449-8.701-10.108-10.547-0.44-0.176-0.879-0.352-1.318-0.352-0.703 0.088-1.406 0.703-1.494 1.406-0.088 0.791 0.44 1.582 1.143 1.846 3.867 1.494 7.031 4.746 8.526 8.614v0zM49.811 27.172c0.176 0.879 0.791 1.67 1.758 1.758 1.055 0.088 2.022-0.967 1.758-2.021-2.109-7.032-7.647-12.832-14.414-15.293-0.615-0.176-1.23-0.527-1.846-0.351-1.494 0.264-1.846 2.549-0.44 3.076 6.152 1.846 11.162 6.768 13.184 12.832v0zM29.332 22.163c1.934-0.527 3.164-2.637 2.725-4.57-0.352-1.846-2.197-3.34-4.131-3.076-4.922 0.967-9.229 4.219-11.778 8.526-3.164 5.274-3.516 12.129-0.879 17.579 2.725 5.801 8.701 10.020 15.118 10.547 3.955 0.352 8.086-0.615 11.514-2.725 4.131-2.549 7.119-6.768 8.262-11.426 0.352-1.758-0.791-3.603-2.461-4.219-1.582-0.615-3.603 0-4.57 1.406-0.703 0.967-0.791 2.197-1.406 3.164-1.582 3.34-5.098 5.713-8.789 5.977-4.658 0.44-9.316-2.549-10.899-6.944-1.23-3.076-0.879-6.768 0.967-9.581 1.318-2.285 3.692-4.043 6.328-4.658v0zM53.854 15.043c5.186 6.416 7.295 15.206 5.537 23.292-1.846 9.141-8.613 16.963-17.227 20.303-3.955 1.582-8.262 2.109-12.481 1.758-7.735-0.615-15.118-4.658-19.864-10.811-2.461-3.164-4.131-6.856-5.098-10.723-1.758-7.471-0.264-15.645 4.043-21.973 4.834-7.295 13.272-12.041 21.973-12.393 8.789-0.439 17.666 3.604 23.116 10.547v0z"></path>
</svg>
