<!-- Generated by IcoMoon.io -->
<svg version="1.1" xmlns="http://www.w3.org/2000/svg" width="64" height="64" viewBox="0 0 64 64">
<title>a-podbean</title>
<path d="M56.178 19.743c-0.533-0.622-1.155-1.155-1.689-1.689-0.889-0.977-1.955-1.778-3.022-2.577-1.867-1.422-3.822-2.577-5.955-3.555-1.778-0.8-3.644-1.511-5.511-1.956-1.244-0.267-2.577-0.622-3.91-0.711-1.6-0.178-3.111-0.356-4.71-0.267-3.111 0.089-6.31 0.533-9.243 1.511-2.044 0.711-4 1.511-5.955 2.577-2.755 1.6-5.333 3.466-7.555 5.777-1.422 1.511-2.844 3.111-3.999 4.888-0.178 0.267-0.355 0.533-0.444 0.889-0.356 0.978-0.178 2.044 0.356 2.933 0.444 0.711 1.155 1.244 1.955 1.511 0.533 0.178 1.067 0.089 1.6 0 0.444-0.089 0.889-0.267 1.244-0.533 0.444-0.267 0.711-0.711 0.978-1.155 0.444-0.711 0.978-1.422 1.511-2.044 3.022-3.644 7.021-6.577 11.554-8.088 1.244-0.533 2.578-0.8 3.911-1.067 1.6-0.355 3.289-0.444 4.977-0.355 1.689 0 3.377 0.178 4.977 0.533 1.244 0.267 2.489 0.533 3.644 1.066 0.533 0.178 1.066 0.355 1.511 0.622 1.333 0.622 2.666 1.333 3.91 2.133 2.577 1.689 4.711 3.822 6.577 6.221 0.533 0.711 0.889 1.422 1.511 2.044 0.711 0.533 1.6 0.889 2.489 0.8 0.711 0 1.333-0.355 1.867-0.711 0.8-0.622 1.244-1.689 1.244-2.666-0.089-0.444-0.089-0.978-0.355-1.333-0.977-1.866-2.133-3.377-3.466-4.799v0z"></path>
<path d="M46.313 26.942c-3.822-3.822-9.154-5.955-14.576-5.866-2.4 0.089-4.711 0.445-6.933 1.333-1.333 0.533-2.666 1.155-3.822 1.955-1.244 0.8-2.4 1.689-3.466 2.755-0.889 0.889-1.689 1.955-2.4 2.933-0.267 0.445-0.533 0.8-0.622 1.333-0.178 0.533-0.089 1.155 0 1.689 0.267 1.066 1.155 1.955 2.133 2.311 1.156 0.355 2.489 0.089 3.377-0.8 0.533-0.622 0.978-1.333 1.511-1.955 0.8-0.889 1.689-1.689 2.666-2.399 2.222-1.511 4.888-2.489 7.555-2.489 1.066 0 2.133 0.089 3.2 0.267 2.489 0.444 4.8 1.778 6.666 3.466 0.711 0.711 1.422 1.511 1.955 2.4 0.267 0.356 0.533 0.711 0.889 0.978 0.978 0.8 2.311 0.978 3.377 0.444 0.8-0.355 1.511-1.066 1.778-1.867 0.267-0.889 0.267-1.955-0.267-2.844-0.889-1.333-1.866-2.489-3.022-3.644v-0z"></path>
<path d="M40.536 38.496c-2.044-2.844-5.511-4.622-9.066-4.444-1.955 0.089-3.822 0.711-5.422 1.867-1.067 0.711-1.956 1.689-2.755 2.755-0.622 0.889-1.067 1.867-1.333 2.844-0.711 2.133-0.533 4.533 0.178 6.666 0.445 0.977 0.889 1.955 1.6 2.844 0.889 1.066 1.866 1.956 3.111 2.666 1.155 0.622 2.4 1.066 3.733 1.244 1.155 0.178 2.311 0.089 3.466-0.089 1.866-0.356 3.555-1.244 4.977-2.489 1.689-1.511 2.844-3.644 3.288-5.955 0.089-0.889 0.089-1.778 0.089-2.666-0.089-1.955-0.8-3.733-1.867-5.244h-0zM37.425 45.428c-0.267 1.422-1.066 2.844-2.311 3.644-0.711 0.533-1.6 0.889-2.489 0.889-0.622 0-1.333 0.089-1.955-0.089-0.8-0.178-1.511-0.622-2.133-1.066-0.8-0.622-1.333-1.511-1.689-2.4-0.533-1.511-0.445-3.289 0.355-4.622 0.267-0.444 0.533-0.889 0.889-1.244 0.533-0.444 1.067-0.889 1.689-1.156 0.533-0.178 1.155-0.355 1.778-0.444 1.689-0.178 3.377 0.622 4.533 1.778 0.355 0.444 0.711 0.978 0.978 1.511 0.444 1.066 0.444 2.133 0.356 3.2v0z"></path>
</svg>
