<!-- Generated by IcoMoon.io -->
<svg version="1.1" xmlns="http://www.w3.org/2000/svg" width="64" height="64" viewBox="0 0 64 64">
<title>a-radio-republic</title>
<path d="M57.612 57.219c0.015-14.545-0.004-29.089 0.042-43.634 0.004-1.148-0.465-1.595-1.425-1.916-2.587-0.864-5.235-1.018-7.884-0.55-3.555 0.629-7.091 1.376-10.619 2.147-1.108 0.242-1.534 0.058-1.477-1.167 0.087-1.86-0.017-3.729 0.039-5.592 0.027-0.891-0.298-1.357-1.138-1.636-1.941-0.646-3.913-0.942-5.961-0.856-4.127 0.172-8.030 1.534-12.059 2.22-3.123 0.531-6.263 0.785-9.293-0.393-1.256-0.489-1.497-0.211-1.489 1.061 0.048 7.245 0.023 14.491 0.023 21.737s0.028 14.492-0.029 21.737c-0.009 1.132 0.432 1.613 1.412 1.934 2.642 0.864 5.344 1.017 8.045 0.545 3.716-0.649 7.412-1.419 11.1-2.213 0.479-0.103 0.797-0.092 1.003 0.030-0.004 2.237-0.023 4.474 0.003 6.711 0.006 0.485-0.255 1.080 0.357 1.43 0.010-0.112 0.041-0.208 0.080-0.296 0.116 0.241 0.325 0.423 0.695 0.542 2.092 0.668 4.196 1.067 6.421 0.906 3.421-0.247 6.693-1.216 10.020-1.913 3.745-0.785 7.472-1.215 11.158 0.232 1.335 0.524 0.972-0.495 0.973-1.064zM27.229 42.757c-0.854 0.021-1.655 0.166-2.488 0.295-1.924 0.298-2.157 0.066-2.187-1.903-0.041-2.664-0.002-5.328-0.017-7.993-0.006-1.025 0.403-2.404-1.321-2.378-1.663 0.026-1.071 1.402-1.085 2.28-0.051 3.143-0.042 6.288-0.006 9.431 0.011 0.948-0.086 1.468-1.251 1.755-0.765 0.188-1.628 0.294-2.409 0.685-1.003 0.501-1.868-0.238-1.869-1.407-0.005-9.218 0.009-18.437-0.021-27.655-0.003-0.905 0.2-1.361 1.181-1.452 2.492-0.231 4.887-0.98 7.331-1.474 3.049-0.617 4.953 0.388 5.071 3.817 0.046 1.331-0.039 2.667 0.029 3.996 0.111 2.17-0.188 4.156-2.361 5.598 1.831 0.679 2.284 1.899 2.287 3.378 0.006 3.197-0.003 6.394 0.007 9.591 0.002 0.691-0.12 1.461 0.135 2.057 0.516 1.205-0.427 1.365-1.024 1.379zM49.376 32.57c-0.358 2.959-2.212 4.998-5.15 5.637-0.598 0.13-1.11 0.508-1.832 0.401-0.875-0.131-0.722 0.7-0.724 1.258-0.007 2.926-0.003 5.853-0.003 8.78 0 2.177-0.778 2.938-3.026 2.84-0.785-0.034-1.77 0.651-2.255 0.071-0.548-0.654-0.177-1.741-0.181-2.637-0.021-4.097-0.009-8.194-0.009-12.292 0-3.472 0.010-6.944 0.001-10.416-0.003-1.157-0.008-2.314-0.017-3.472-0.006-0.889 0.167-1.235 1.179-1.382 2.2-0.32 4.36-0.911 6.54-1.377 3.714-0.794 5.323 0.275 5.564 3.983 0.186 2.86 0.261 5.744-0.086 8.605z"></path>
<path d="M20.802 18.331c-1.258 0.005-0.569 0.988-0.663 1.517-0.119 0.67-0.029 1.378-0.029 2.069 0 0.851-0.047 1.706 0.019 2.551 0.036 0.467-0.367 1.294 0.329 1.335 0.725 0.043 1.62-0.198 1.943-1.092 0.122-0.338 0.129-0.73 0.134-1.097 0.016-1.223-0.116-2.462 0.037-3.666 0.194-1.524-0.719-1.622-1.77-1.618z"></path>
<path d="M42.957 24.985c-0.798 0.064-1.418 0.241-1.311 1.309 0.099 0.997 0.021 2.012 0.021 3.019s-0.033 2.015 0.016 3.019c0.020 0.419-0.303 1.034 0.321 1.225 0.531 0.163 1.026-0.143 1.445-0.492 0.397-0.331 0.515-0.772 0.513-1.275-0.007-1.854 0-3.709 0.002-5.564 0.001-0.687-0.080-1.315-1.007-1.241z"></path>
</svg>
