<!-- Generated by IcoMoon.io -->
<svg version="1.1" xmlns="http://www.w3.org/2000/svg" width="64" height="64" viewBox="0 0 64 64">
<title>h-blog-talk-radio</title>
<path d="M58.242 45.767c-0.339-0.787-0.8-1.473-1.384-2.058-0.584-0.584-1.27-1.045-2.058-1.384-0.787-0.338-1.623-0.508-2.509-0.508s-1.722 0.17-2.509 0.508c-0.788 0.339-1.474 0.8-2.057 1.384-0.584 0.585-1.045 1.271-1.384 2.058s-0.508 1.624-0.508 2.509c0 0.886 0.169 1.722 0.508 2.51s0.8 1.473 1.384 2.057c0.584 0.585 1.27 1.046 2.057 1.384s1.624 0.508 2.509 0.508c0.886 0 1.722-0.169 2.509-0.508s1.474-0.799 2.058-1.384c0.584-0.584 1.045-1.27 1.384-2.057s0.508-1.624 0.508-2.51c0-0.885-0.169-1.722-0.508-2.509zM52.292 50.86c-0.357 0-0.692-0.067-1.005-0.203s-0.587-0.319-0.821-0.554c-0.234-0.233-0.419-0.507-0.554-0.821s-0.203-0.649-0.203-1.006c0-0.356 0.068-0.692 0.203-1.005s0.32-0.587 0.554-0.821c0.233-0.234 0.507-0.419 0.821-0.553s0.648-0.204 1.005-0.204c0.357 0 0.692 0.068 1.006 0.204s0.587 0.319 0.821 0.553c0.233 0.233 0.418 0.508 0.553 0.821s0.203 0.649 0.203 1.005c0 0.357-0.068 0.692-0.203 1.006s-0.32 0.587-0.553 0.821c-0.234 0.234-0.508 0.419-0.821 0.554-0.314 0.136-0.649 0.203-1.006 0.203z"></path>
<path d="M48.317 20.198c0.393-0.412 0.732-0.869 1.015-1.374v-4.096h-4.742v2.583h1.107c-0.246 0.307-0.541 0.55-0.886 0.729s-0.726 0.267-1.144 0.267c-0.357 0-0.692-0.064-1.006-0.193-0.313-0.13-0.587-0.307-0.821-0.535s-0.419-0.501-0.553-0.821c-0.136-0.32-0.203-0.665-0.203-1.034s0.061-0.713 0.184-1.033c0.123-0.319 0.292-0.594 0.508-0.821s0.47-0.406 0.766-0.535c0.295-0.129 0.621-0.194 0.977-0.194 0.32 0 0.646 0.053 0.978 0.158s0.608 0.255 0.83 0.451l2.233-3.174c-0.271-0.234-0.609-0.449-1.015-0.646-0.345-0.172-0.769-0.326-1.273-0.461s-1.101-0.204-1.789-0.204c-0.886 0-1.713 0.17-2.482 0.508s-1.433 0.8-1.992 1.384c-0.56 0.585-1 1.271-1.32 2.058s-0.48 1.624-0.48 2.509c0 0.911 0.169 1.76 0.507 2.547s0.799 1.47 1.384 2.048c0.584 0.579 1.27 1.033 2.057 1.366s1.623 0.498 2.509 0.498c0.602 0 1.187-0.080 1.753-0.239 0.566-0.16 1.092-0.387 1.577-0.683s0.926-0.648 1.319-1.061z"></path>
<path d="M40.648 42.114h4.17v12.307h-4.17v-12.307z"></path>
<path d="M32.799 25.735v12.307h3.986v-3.801l2.621 3.801h4.742l-4.557-6.679 4.336-5.628h-4.816l-2.326 2.841v-2.841z"></path>
<path d="M37.724 43.664c-0.621-0.516-1.384-0.904-2.288-1.162s-1.934-0.387-3.091-0.387h-3.414v12.307h3.414c1.157 0 2.187-0.132 3.091-0.397s1.667-0.654 2.288-1.172c0.621-0.517 1.095-1.16 1.421-1.928s0.488-1.658 0.488-2.667c0-1.009-0.163-1.897-0.488-2.666s-0.8-1.412-1.421-1.929zM32.862 50.916v-5.295c0.923 0 1.636 0.215 2.14 0.646s0.757 1.095 0.757 1.992c0 0.898-0.252 1.566-0.757 2.002-0.504 0.437-1.218 0.655-2.14 0.655z"></path>
<path d="M25.446 20.29c0.584 0.585 1.27 1.046 2.058 1.384 0.787 0.339 1.623 0.508 2.509 0.508s1.723-0.169 2.509-0.508c0.788-0.338 1.474-0.799 2.058-1.384s1.045-1.27 1.384-2.057c0.339-0.788 0.507-1.624 0.507-2.51s-0.169-1.722-0.507-2.509c-0.339-0.787-0.8-1.473-1.384-2.058s-1.27-1.045-2.058-1.384c-0.787-0.338-1.623-0.508-2.509-0.508s-1.723 0.17-2.509 0.508c-0.788 0.338-1.474 0.8-2.058 1.384s-1.045 1.271-1.384 2.058c-0.339 0.788-0.508 1.624-0.508 2.509s0.169 1.723 0.508 2.51c0.338 0.787 0.8 1.473 1.384 2.057zM30.012 13.14c0.357 0 0.692 0.068 1.005 0.204 0.314 0.135 0.587 0.319 0.822 0.554 0.233 0.233 0.418 0.508 0.553 0.821s0.203 0.649 0.203 1.005c0 0.357-0.068 0.692-0.203 1.006-0.136 0.313-0.32 0.587-0.553 0.82-0.234 0.234-0.508 0.419-0.822 0.554-0.313 0.136-0.648 0.203-1.005 0.203s-0.692-0.067-1.005-0.203c-0.314-0.135-0.587-0.32-0.822-0.554-0.233-0.233-0.418-0.507-0.553-0.82-0.135-0.314-0.203-0.649-0.203-1.006s0.068-0.692 0.203-1.005c0.136-0.313 0.32-0.588 0.553-0.821 0.234-0.234 0.508-0.419 0.822-0.554s0.648-0.204 1.005-0.204z"></path>
<path d="M24.661 25.735v12.307h7.492v-3.229h-3.395v-9.078z"></path>
<path d="M21.034 42.114l-4.669 12.307h3.875l0.406-1.107h3.727l0.406 1.107h3.875l-4.669-12.307h-2.952zM21.68 50.602l0.83-2.159 0.83 2.159h-1.661z"></path>
<path d="M20.51 38.042h3.875l-4.668-12.307h-2.952l-4.669 12.307h3.875l0.406-1.107h3.728l0.405 1.107zM17.41 34.223l0.831-2.159 0.83 2.159h-1.661z"></path>
<path d="M23.739 18.639h-3.395v-9.078h-4.096v12.307h7.492z"></path>
<path d="M14.706 49.55c0.209-0.283 0.399-0.64 0.572-1.070s0.258-0.954 0.258-1.568c0-0.776-0.138-1.462-0.415-2.058s-0.662-1.098-1.153-1.504c-0.493-0.406-1.074-0.714-1.744-0.923s-1.399-0.313-2.186-0.313h-4.244v12.307h3.931v-3.119l1.845 3.119h4.613l-2.306-4.060c0.307-0.221 0.584-0.492 0.83-0.812zM11.605 46.8c0 0.493-0.163 0.843-0.489 1.052s-0.723 0.313-1.19 0.313h-0.203v-2.731h0.203c0.467 0 0.864 0.105 1.19 0.313s0.489 0.56 0.489 1.051z"></path>
<path d="M12.788 21.601c0.56-0.178 1.033-0.437 1.421-0.776 0.387-0.338 0.685-0.747 0.895-1.227 0.209-0.479 0.313-1.015 0.313-1.605 0-0.517-0.076-0.953-0.231-1.31s-0.323-0.652-0.508-0.886c-0.221-0.271-0.467-0.492-0.738-0.664 0.172-0.148 0.326-0.332 0.461-0.554 0.111-0.185 0.215-0.415 0.314-0.692s0.147-0.612 0.147-1.005c0-0.554-0.101-1.037-0.305-1.449s-0.486-0.756-0.849-1.033c-0.363-0.277-0.8-0.486-1.31-0.628s-1.073-0.211-1.688-0.211h-4.816v12.307h5.019c0.689 0 1.313-0.089 1.873-0.267zM10.14 14.155h-0.443v-1.697h0.443c0.615 0 0.923 0.283 0.923 0.849s-0.307 0.849-0.923 0.849zM9.697 18.971v-2.141h0.443c0.935 0 1.402 0.357 1.402 1.070s-0.467 1.071-1.402 1.071h-0.443z"></path>
<path d="M7.52 38.042h4.059v-9.078h2.269v-3.229h-8.599v3.229h2.27z"></path>
</svg>
