<!-- Generated by IcoMoon.io -->
<svg version="1.1" xmlns="http://www.w3.org/2000/svg" width="64" height="64" viewBox="0 0 64 64">
<title>h-buzz-sprout</title>
<path d="M58.921 35.936c-3.873-0.097-7.615 0.55-11.211 1.97-3.792 1.498-6.806 3.924-8.832 7.524-2.183 3.88-2.953 8.109-3.199 12.479 0 0.349 0.039 0.704-0.008 1.047-0.109 0.8 0.186 1.037 1.002 1.014 3.403-0.096 6.753-0.514 9.97-1.652 3.906-1.381 7.152-3.644 9.382-7.239 2.733-4.407 3.435-9.323 3.72-14.357 0.036-0.633-0.242-0.77-0.824-0.785z"></path>
<path d="M26.546 48.808c-1.33-3.736-3.415-6.894-6.814-9.078-4.018-2.582-8.496-3.538-13.184-3.782-0.437 0-0.879 0.044-1.309-0.010-0.751-0.094-0.993 0.145-0.987 0.942 0.027 3.507 0.54 6.927 1.722 10.228 1.303 3.641 3.376 6.738 6.66 8.903 4.524 2.981 9.63 3.792 14.907 3.952 0.69 0.021 0.726-0.408 0.715-0.918-0.077-3.495-0.531-6.924-1.71-10.236z"></path>
<path d="M46.11 29.337c0.463-2.129 0.246-4.283 0.325-6.426 0.021-0.566-0.234-0.683-0.733-0.675-1.484 0.023-2.968 0.010-4.453 0.011 0-0 0-0 0-0-0.007-0.756-0.036-1.512-0.015-2.267 0.013-0.477-0.132-0.667-0.642-0.666-5.961 0.014-11.921 0.014-17.882 0.002-0.511-0.001-0.648 0.204-0.635 0.676 0.021 0.755-0.010 1.511-0.020 2.267-1.368-0.004-2.736 0.002-4.104-0.019-0.544-0.008-0.786 0.169-0.765 0.759 0.039 1.105-0.021 2.213 0.018 3.317 0.082 2.339 0.525 4.601 1.68 6.667 2.021 3.613 4.985 6.052 9.018 7.12 0.768 0.203 1.119 0.504 1.107 1.446-0.074 5.849-0.036 11.7-0.066 17.55-0.003 0.678 0.17 0.928 0.877 0.9 1.308-0.052 2.62-0.044 3.928-0.007 0.623 0.018 0.802-0.211 0.785-0.811-0.039-1.396-0.019-2.794-0.020-4.191-0.003-4.628-0.007-9.255-0.002-13.883 0-0.318-0.118-0.669 0.427-0.788 2.199-0.48 4.228-1.357 6.002-2.768 2.681-2.133 4.434-4.846 5.167-8.213zM29.002 34.912c-0.009 0.726-0.021 1.452-0.025 2.178-0.002 0.378-0.128 0.53-0.534 0.398-3.985-1.29-6.719-3.853-8.010-7.873-0.393-1.223-0.444-2.497-0.495-3.774-0.028-0.692 0.184-0.964 0.881-0.886 0.402 0.045 0.813 0.009 1.22 0.010 0.197 1.449 0.201 2.926 0.786 4.314 1.109 2.632 3.034 4.365 5.702 5.3 0.21 0.073 0.352 0.171 0.474 0.333 0.913 0.129 1.826 0.194 2.739 0.194-0.913 0-1.826-0.065-2.739-0.194zM35.365 37.447c-0.692 0.204-0.899 0.080-0.865-0.623 0.031-0.637-0.011-1.277-0.020-1.916 0.245-0.432 0.739-0.405 1.117-0.573 2.956-1.314 4.803-3.547 5.503-6.685 0.193-0.863 0.12-1.785 0.169-2.679-0.006-0.884-0.012-1.768-0.018-2.652 0.006 0.884 0.012 1.768 0.018 2.652 0.32-0.003 0.639-0.011 0.959-0.006 1.568 0.023 1.438-0.274 1.449 1.522 0.034 5.553-4.001 9.691-8.311 10.96z"></path>
<path d="M21.848 15.755c-0.006 0.664 0.204 0.838 0.846 0.831 2.881-0.031 5.762-0.013 8.643-0.014 2.648-0 5.297-0 7.945-0 1.664 0 1.683-0 1.658-1.631-0.024-1.615 0.151-3.238-0.477-4.812-2.332-5.839-9.452-7.963-14.614-4.362-1.953 1.362-3.182 3.225-3.744 5.472-0.365 1.458-0.244 3.003-0.258 4.516z"></path>
</svg>
