<!-- Generated by IcoMoon.io -->
<svg version="1.1" xmlns="http://www.w3.org/2000/svg" width="64" height="64" viewBox="0 0 64 64">
<title>h-castos</title>
<path d="M60.002 31.442c0.305 15.301-11.683 27.856-26.708 28.529-15.859 0.711-28.966-11.805-29.296-27.536-0.315-15.044 11.979-28.053 27.006-28.426 15.825-0.393 28.609 11.702 28.998 27.433zM32.064 6.629c-13.992-0.043-25.383 11.272-25.434 25.261-0.058 15.772 13.988 27.285 28.389 25.387 12.151-1.601 22.296-11.793 22.369-25.205 0.076-14.003-11.273-25.401-25.324-25.443z"></path>
<path d="M32.045 48.648c-1.493-0-2.986 0.004-4.478-0.002-0.936-0.004-1.468-0.422-1.481-1.145-0.014-0.753 0.536-1.198 1.505-1.205 0.89-0.007 1.781-0.023 2.671 0.006 0.455 0.014 0.655-0.090 0.641-0.599-0.033-1.282-0.023-2.566-0.002-3.849 0.006-0.397-0.133-0.525-0.524-0.595-5.518-0.998-9.171-5.379-9.235-11.050-0.008-0.733-0.021-1.468 0.013-2.199 0.035-0.753 0.501-1.209 1.169-1.215 0.651-0.006 1.141 0.47 1.168 1.217 0.037 0.994-0.010 1.991 0.038 2.985 0.217 4.479 3.956 8.041 8.448 8.072 4.513 0.031 8.311-3.452 8.603-7.914 0.065-0.992 0.037-1.989 0.064-2.983 0.024-0.881 0.448-1.371 1.168-1.375 0.712-0.004 1.163 0.503 1.187 1.364 0.074 2.688 0.012 5.344-1.439 7.758-1.763 2.933-4.307 4.729-7.671 5.325-0.497 0.088-0.656 0.237-0.643 0.735 0.032 1.23 0.037 2.462-0.004 3.692-0.018 0.547 0.195 0.652 0.679 0.635 0.916-0.032 1.833-0.020 2.749-0.007 0.851 0.013 1.385 0.476 1.385 1.169 0 0.698-0.531 1.171-1.376 1.178-1.545 0.013-3.090 0.004-4.636 0.004z"></path>
<path d="M38.861 26.515c0 1.465 0.099 2.939-0.020 4.394-0.28 3.413-3.239 5.977-6.676 5.895-3.476-0.083-6.303-2.728-6.424-6.157-0.095-2.693-0.104-5.393-0.016-8.086 0.115-3.541 3.013-6.228 6.587-6.252 3.501-0.023 6.424 2.747 6.576 6.28 0.056 1.306 0.009 2.617 0.009 3.926-0.011 0-0.023 0-0.035 0zM36.398 26.558c0-1.177 0.010-2.354-0.002-3.531-0.024-2.443-1.765-4.238-4.101-4.241s-4.071 1.783-4.089 4.246c-0.017 2.354-0.015 4.708-0 7.063 0.015 2.414 1.719 4.201 4.015 4.241 2.33 0.041 4.122-1.737 4.172-4.168 0.025-1.203 0.004-2.407 0.005-3.61z"></path>
</svg>
