<!-- Generated by IcoMoon.io -->
<svg version="1.1" xmlns="http://www.w3.org/2000/svg" width="64" height="64" viewBox="0 0 64 64">
<title>h-fire-side</title>
<path d="M13.288 38.5c0.244-0.448 0.212-0.955 0.29-1.436 0.544-3.338 1.912-6.349 3.628-9.226 1.642-2.752 3.589-5.305 5.255-8.042 1.239-2.037 2.297-4.151 2.64-6.548 0.242-1.694 0.115-3.325-0.905-4.784-0.253-0.362-0.563-0.663-0.916-0.929-0.645-0.485-0.598-1.018 0.133-1.385 1.239-0.623 2.568-0.862 3.937-0.749 2.921 0.242 5.486 1.282 7.241 3.734 1.921 2.685 2.064 5.643 0.969 8.686-0.947 2.631-2.569 4.887-4.114 7.181-1.779 2.639-3.592 5.257-4.895 8.181-1.611 3.615-2.212 7.331-1.294 11.252 1.053 4.5 5.331 8.28 9.928 8.702 0.856 0.079 1.703 0.102 2.551-0.033 0.252-0.040 0.62 0.014 0.615-0.367-0.005-0.377-0.365-0.324-0.623-0.355-2.802-0.338-5.245-1.426-7.172-3.525-2.534-2.761-3.052-6.807-1.38-10.379 0.502-1.073 1.098-2.106 1.455-3.241 0.409-1.3 0.515-2.603-0.043-3.904-0.243-0.565-0.012-0.903 0.645-0.964 1.599-0.149 2.935 0.497 4.111 1.485 2.373 1.992 3.111 4.63 2.883 7.617-0.125 1.639-0.392 3.268-0.324 4.919 0.065 1.581 0.536 2.973 1.983 3.805 1.307 0.751 2.743 0.726 4.191 0.515 0.702-0.102 1.38-0.297 2.063-0.473 0.239-0.062 0.477-0.217 0.685 0.038 0.194 0.237 0.161 0.515 0.059 0.771-0.344 0.871-0.736 1.722-1.236 2.517-2.457 3.906-6.037 6.075-10.543 6.819-0.399 0.066-0.822 0.031-1.192 0.244-1.292 0-2.583 0-3.875 0-0.087-0.163-0.252-0.117-0.387-0.136-2.284-0.313-4.454-0.984-6.466-2.114-4.571-2.567-7.672-6.328-9.211-11.365-0.315-1.031-0.366-2.11-0.685-3.135 0-1.125 0-2.25 0-3.375z"></path>
<path d="M42.453 41.444c-0.007-3.026-1.021-5.232-2.384-7.32-1.206-1.847-2.602-3.558-3.794-5.416-2.943-4.588-0.568-9.819 2.708-11.67 0.434-0.245 0.88-0.47 1.371-0.585 0.659-0.154 1.017 0.102 1.009 0.781-0.016 1.242 0.145 2.445 0.616 3.603 0.687 1.686 1.923 2.95 3.201 4.178 1.625 1.563 3.162 3.185 4.192 5.232 2.466 4.902 1.45 11.213-2.43 14.791-1.244 1.147-2.672 1.908-4.425 1.865-0.269-0.007-0.542-0.034-0.804-0.091-1.101-0.241-1.196-0.509-0.557-1.418 0.93-1.323 1.307-2.813 1.297-3.95z"></path>
</svg>
