<!-- Generated by IcoMoon.io -->
<svg version="1.1" xmlns="http://www.w3.org/2000/svg" width="64" height="64" viewBox="0 0 64 64">
<title>h-libsyn</title>
<path d="M41.781 22.741c0.532 0.496 1.099 0.83 1.663 1.16 2.896 1.698 6.046 2.652 9.349 3.139 0.314 0.046 0.642-0.012 0.964-0.019 1.788-0.039 3.572 0.035 5.35 0.233 0.647 0.072 0.943 0.397 0.944 1.067 0.004 2.419 0.004 4.839-0 7.259-0.001 0.659-0.143 0.805-0.802 0.788-2.327-0.059-4.651-0.208-6.979-0.173-2.099 0.032-4.102 0.574-6.054 1.3-1.526 0.568-2.959 1.32-4.267 2.299-0.143 0.107-0.315 0.201-0.266 0.41 0.047 0.197 0.242 0.115 0.373 0.15 2.263 0.614 4.568 1.016 6.886 1.352 1.984 0.287 3.978 0.422 5.979 0.51 1.435 0.063 2.87 0.11 4.302-0.013 0.38-0.033 0.442 0.118 0.441 0.439-0.004 2.625 0.003 5.25 0.005 7.874 0.001 0.352-0.010 0.705 0.002 1.056 0.008 0.246-0.090 0.334-0.334 0.335-1.919 0.011-3.836-0.042-5.753-0.148-1.549-0.085-3.094-0.203-4.637-0.363-2.694-0.28-5.362-0.715-8.007-1.297-1.774-0.39-3.522-0.876-5.254-1.413-0.445-0.138-0.616 0.024-0.746 0.41-0.593 1.765-0.986 3.572-1.25 5.416-0.242 1.688-0.28 3.381-0.247 5.080 0.006 0.305-0.087 0.404-0.397 0.403-3.123-0.011-6.247-0.017-9.37-0.003-0.428 0.002-0.514-0.097-0.477-0.536 0.336-3.982 1.042-7.888 2.301-11.686 0.29-0.874 0.61-1.74 0.954-2.595 0.132-0.327 0.040-0.474-0.235-0.629-1.969-1.11-3.815-2.401-5.582-3.806-0.276-0.219-0.37-0.148-0.508 0.117-0.925 1.784-1.684 3.638-2.352 5.532-1.162 3.295-1.952 6.68-2.43 10.137-0.142 1.028-0.262 2.062-0.287 3.102-0.007 0.291-0.102 0.372-0.384 0.371-3.387-0.009-6.775-0.014-10.162-0.002-0.418 0.001-0.554-0.065-0.506-0.546 0.571-5.688 1.677-11.258 3.594-16.654 1.235-3.477 2.79-6.803 4.773-9.917 0.311-0.489 0.321-0.827-0.003-1.31-2.186-3.257-3.812-6.788-5.024-10.511-1.008-3.096-1.684-6.265-2.087-9.497-0.295-2.361-0.379-4.726-0.342-7.101 0.005-0.324 0.069-0.457 0.436-0.454 3.123 0.015 6.247 0.013 9.37 0.002 0.311-0.001 0.402 0.095 0.397 0.398-0.014 0.821-0.007 1.643 0.007 2.464 0.063 3.831 0.567 7.595 1.693 11.268 0.616 2.010 1.433 3.931 2.407 5.791 0.136 0.26 0.219 0.313 0.456 0.095 2.103-1.925 4.369-3.636 6.811-5.109 0.251-0.151 0.16-0.286 0.083-0.462-0.746-1.724-1.352-3.494-1.793-5.32-0.509-2.11-0.849-4.243-0.973-6.413-0.044-0.777-0.037-1.552-0.059-2.327-0.008-0.271 0.055-0.392 0.361-0.391 3.080 0.010 6.159 0.011 9.239-0.002 0.363-0.002 0.352 0.192 0.359 0.441 0.050 1.74 0.13 3.475 0.413 5.198 0.265 1.609 0.697 3.167 1.234 4.704 0.142 0.406 0.372 0.276 0.615 0.193 1.62-0.559 3.268-1.023 4.936-1.412 2.611-0.61 5.252-1.029 7.921-1.297 2.704-0.271 5.412-0.297 8.123-0.234 0.789 0.018 1.576 0.113 2.365 0.158 0.248 0.014 0.337 0.126 0.329 0.358-0.005 0.146 0.008 0.293 0.008 0.44 0.001 2.728-0.007 5.455 0.009 8.183 0.003 0.395-0.114 0.504-0.5 0.474-2.031-0.155-4.066-0.231-6.103-0.164-3.608 0.12-7.171 0.564-10.665 1.497-0.183 0.049-0.361 0.119-0.617 0.204zM38.066 31.356c-0.79-0.458-1.493-0.93-2.185-1.416-1.102-0.776-2.146-1.625-3.114-2.564-0.288-0.28-0.537-0.393-0.931-0.109-1.067 0.772-2.126 1.553-3.125 2.411-0.856 0.735-1.662 1.523-2.436 2.343-0.12 0.126-0.328 0.247-0.079 0.459 0.356 0.302 0.672 0.657 1.051 0.925 1.393 0.986 2.793 1.965 4.286 2.803 0.306 0.172 0.471 0.128 0.69-0.114 0.917-1.010 1.931-1.918 3-2.763 0.892-0.705 1.833-1.343 2.842-1.976z"></path>
</svg>
