<!-- Generated by IcoMoon.io -->
<svg version="1.1" xmlns="http://www.w3.org/2000/svg" width="64" height="64" viewBox="0 0 64 64">
<title>h-pippa-io</title>
<path d="M52.231 12.629c1.238 1.952 2.209 4.019 2.633 6.308 0.555 2.994 0.496 5.956-0.25 8.934-0.678 2.706-1.944 5.089-3.8 7.095-2.357 2.547-5.387 3.893-8.853 4.21-1.041 0.095-2.085 0.153-3.128 0.227 0 0-0.014 0.002-0.014 0.002-3.096-0.001-6.191 0.024-9.287-0.022-0.761-0.011-0.925 0.221-0.913 0.945 0.045 2.711 0.016 5.423 0.020 8.135 0.002 1.328 0.584 1.929 1.907 1.946 1.228 0.016 2.457 0.025 3.684-0.007 0.48-0.012 0.612 0.154 0.608 0.612-0.017 1.919-0.036 3.838 0.016 5.756 0.019 0.69-0.297 0.713-0.822 0.712-6.601-0.013-13.201-0.010-19.802-0.010-0.332 0-0.664 0.018-0.996 0.027-0.164-0.136-0.123-0.325-0.123-0.499-0.003-1.995 0.011-3.99-0.011-5.985-0.005-0.463 0.123-0.622 0.601-0.612 1.278 0.027 2.558 0.025 3.836-0.007 1.036-0.026 1.683-0.664 1.684-1.693 0.005-9.131-0.005-18.263-0.011-27.394 0-0.025-0.009-0.050-0.013-0.076 0.012-2.373 0.020-4.747 0.041-7.12 0.003-0.323-0.101-0.459-0.436-0.456-2.373 0.021-4.746 0.032-7.119 0.045-0.984-1.879-1.689-3.881-2.545-5.816-0.605-1.367-0.581-1.378 0.892-1.378 9.439-0.001 18.878-0.026 28.316 0.011 3.184 0.013 6.328 0.348 9.194 1.954 1.629 0.912 2.984 2.135 4.199 3.533 0.073 0.094 0.146 0.188 0.219 0.281 0 0 0.016 0.025 0.016 0.025 0.044 0.053 0.087 0.105 0.131 0.157l-0.005-0.005c0.052 0.056 0.104 0.112 0.156 0.168l-0.025-0.005zM28.637 22.971c0 2.737 0.009 5.475-0.009 8.212-0.003 0.471 0.089 0.675 0.625 0.669 2.43-0.029 4.86-0.007 7.291-0.015 1.803-0.006 3.582-0.18 5.204-1.055 2.854-1.54 3.904-4.144 4.041-7.188 0.076-1.68-0.009-3.323-0.913-4.918-0.438-0.773-0.768-1.625-1.386-2.285-1.425-1.523-3.31-2.066-5.293-2.222-2.985-0.235-5.983-0.046-8.974-0.112-0.571-0.012-0.597 0.266-0.595 0.703 0.012 2.737 0.006 5.474 0.008 8.212z"></path>
</svg>
