<!-- Generated by IcoMoon.io -->
<svg version="1.1" xmlns="http://www.w3.org/2000/svg" width="64" height="64" viewBox="0 0 64 64">
<title>h-podiant</title>
<path d="M30.911 53.037c1.221-1.248 2.365-2.419 3.45-3.793-5.819-0.239-9.257-3.681-11.851-8.43-0.322 0.657-0.602 1.238-0.892 1.815-0.878 1.749-1.83 3.456-2.916 5.085-0.112 0.168-0.189 0.571-0.541 0.236-0.228-0.216-0.616-0.315-0.287-0.807 1.479-2.21 2.702-4.563 3.822-6.973 0.207-0.445 0.117-0.636-0.254-0.88-1.557-1.024-3.087-2.088-4.651-3.102-0.418-0.271-0.59-0.507-0.511-1.050 0.298-2.051 0.529-4.111 0.762-6.171 0.057-0.506 0.254-0.834 0.723-1.078 0.826-0.431 1.634-0.901 2.545-1.12 0.388-0.093 0.496-0.297 0.557-0.658 0.427-2.524 0.913-5.038 1.299-7.568 0.109-0.716 0.424-1.092 1.035-1.397 3.628-1.813 7.478-3.082 11.21-4.637 1.613-0.672 2.613-0.368 3.811 0.78 3.906 3.742 6.688 8.215 8.885 13.097 0.716 1.591 1.353 3.213 1.883 4.878 0.109 0.342 0.093 0.615-0.061 0.927-2.914 5.94-6.637 11.32-11.121 16.181-0.444 0.482-1.013 0.556-1.569 0.654-0.384 0.068-0.618 0.233-0.842 0.524-0.783 1.016-1.633 1.975-2.52 2.903-0.717 0.75-0.716 0.751-1.963 0.584zM33.126 27.369c-0.243-0.092-0.45-0.233-0.644-0.407-2.894-2.604-5.927-5.043-8.976-7.46-0.121-0.096-0.221-0.251-0.479-0.178-0.372 2.976-0.904 5.951-1.556 8.902-0.099 0.446 0.163 0.57 0.416 0.764 4.264 3.282 8.54 6.55 12.776 9.869 0.581 0.455 1.013 0.532 1.657 0.22 1.282-0.62 2.685-0.901 4.038-1.322 0.137-0.043 0.293-0.074 0.468 0.079-1.648 0.903-3.267 1.704-4.968 2.339-0.41 0.153-0.687 0.17-1.055-0.128-1.574-1.277-3.18-2.514-4.777-3.763-0.39-0.305-0.787-0.6-1.257-0.957-0.547 2.431-1.811 4.439-2.753 6.587-0.222 0.505-0.375 0.654-0.825 0.201-0.297-0.299-0.601-0.666-1.191-0.757 0.73 1.327 1.565 2.435 2.55 3.422 2.551 2.555 5.577 3.805 9.231 3.319 0.722-0.096 1.282-0.366 1.789-0.931 3.578-3.991 6.663-8.326 9.234-13.027 0.352-0.642 0.672-1.301 1.029-1.995-2.037-0.107-3.959 0.212-5.889 0.25 1.767-0.482 3.55-0.811 5.359-0.955 0.545-0.044 0.657-0.176 0.466-0.708-1.214-3.384-2.706-6.635-4.6-9.694-1.776-2.869-3.843-5.498-6.438-7.683-0.271-0.229-0.496-0.405-0.916-0.251-3.385 1.244-6.772 2.48-10.070 3.942-0.813 0.36-1.64 0.702-2.423 1.218 1.822 1.628 3.606 3.195 5.357 4.797 1.525 1.396 3.080 2.763 4.462 4.309l-0.015-0.003zM18.199 28.848c1.976 1.778 4.010 3.433 5.931 5.207-0.049 0.053-0.098 0.106-0.146 0.158-1.97-1.493-3.941-2.985-5.998-4.544-0.236 1.866-0.453 3.597-0.678 5.328-0.032 0.248 0.081 0.375 0.275 0.502 2.632 1.721 5.236 3.482 7.786 5.419 0.895-1.905 1.906-3.708 2.443-5.725 0.113-0.426 0.012-0.621-0.302-0.858-1.955-1.472-3.88-2.985-5.854-4.43-0.745-0.545-1.435-1.025-1.015-2.094 0.006-0.015-0.017-0.042-0.037-0.087-0.854 0.226-1.64 0.598-2.405 1.123zM24.199 41.358c-0.037-0.032-0.075-0.079-0.124-0.1-0.026-0.011-0.084 0.011-0.104 0.036-0.066 0.085 0.034 0.099 0.072 0.13 0.061 0.048 0.114 0.021 0.156-0.066z"></path>
<path d="M24.199 41.358c-0.042 0.087-0.094 0.114-0.156 0.066-0.038-0.030-0.138-0.044-0.072-0.13 0.020-0.026 0.078-0.048 0.104-0.036 0.049 0.022 0.087 0.068 0.124 0.1z"></path>
<path d="M33.141 27.372c-0.135 0.282 0.141 0.228 0.312 0.375-0.1-0.213-0.062-0.428-0.328-0.379 0.001 0.001 0.016 0.004 0.016 0.004z"></path>
</svg>
