<!-- Generated by IcoMoon.io -->
<svg version="1.1" xmlns="http://www.w3.org/2000/svg" width="64" height="64" viewBox="0 0 64 64">
<title>h-podcast-websites</title>
<path d="M31.999 59.988c-8.385 0-16.77 0.001-25.155-0.001-2.255-0-2.843-0.575-2.843-2.784-0.002-16.77-0.002-33.539 0-50.309 0-2.332 0.542-2.883 2.847-2.883 16.847-0.001 33.694 0.001 50.541 0.005 1.985 0 2.608 0.633 2.609 2.654 0.002 16.886 0.002 33.771-0 50.657-0 2.012-0.633 2.658-2.612 2.659-8.462 0.004-16.924 0.002-25.387 0.002zM10.722 31.938c0 6.639 0.019 13.279-0.021 19.918-0.006 0.973 0.17 1.39 1.253 1.321 1.538-0.098 3.090-0.084 4.629 0.001 1.014 0.056 1.208-0.341 1.201-1.263-0.039-5.134-0.018-10.268-0.018-15.402 0-8.145-0.006-16.29 0.009-24.435 0.001-0.78-0.015-1.314-1.077-1.249-1.615 0.098-3.245 0.089-4.861 0.002-0.973-0.052-1.137 0.324-1.133 1.188 0.030 6.639 0.017 13.279 0.017 19.918zM35.636 32.061c0-6.684-0.017-13.368 0.020-20.052 0.005-0.902-0.218-1.229-1.153-1.173-1.309 0.078-2.626 0.019-3.94 0.021-1.924 0.002-1.924 0.003-1.924 1.87-0.001 8.886-0.003 17.773-0.003 26.659-0 4.211 0.018 8.423-0.015 12.634-0.006 0.828 0.186 1.168 1.090 1.124 1.581-0.078 3.171-0.093 4.75-0.008 1.015 0.054 1.2-0.331 1.195-1.254-0.037-6.607-0.020-13.213-0.020-19.82zM46.291 31.933c0 6.681 0.017 13.363-0.020 20.044-0.005 0.918 0.256 1.209 1.174 1.165 1.503-0.072 3.016-0.088 4.516 0.005 1.081 0.067 1.348-0.291 1.344-1.351-0.039-10.621-0.023-21.241-0.024-31.862 0-2.703-0.025-5.407 0.012-8.11 0.010-0.766-0.249-1.005-1.001-0.983-1.621 0.047-3.246 0.071-4.865-0.007-0.939-0.046-1.16 0.272-1.155 1.171 0.035 6.643 0.019 13.286 0.019 19.928zM26.66 24.055c0-4.055-0.020-8.11 0.017-12.164 0.007-0.793-0.196-1.081-1.026-1.052-1.697 0.060-3.398 0.040-5.097 0.007-0.624-0.012-0.891 0.137-0.889 0.826 0.018 8.225 0.016 16.451-0.001 24.676-0.001 0.646 0.201 0.886 0.859 0.873 1.66-0.032 3.322-0.048 4.98 0.011 0.865 0.030 1.196-0.159 1.181-1.129-0.062-4.015-0.026-8.032-0.023-12.048zM37.533 39.944c-0.001 0-0.002 0-0.003 0 0 4.055 0.013 8.11-0.012 12.164-0.005 0.71 0.136 1.056 0.947 1.030 1.697-0.054 3.398-0.042 5.097-0.008 0.668 0.013 0.966-0.148 0.964-0.891-0.020-8.187-0.020-16.374 0.003-24.561 0.002-0.744-0.279-0.902-0.95-0.887-1.66 0.037-3.323 0.060-4.98-0.008-0.884-0.037-1.096 0.253-1.086 1.113 0.047 4.015 0.021 8.032 0.021 12.048z"></path>
</svg>
