<!-- Generated by IcoMoon.io -->
<svg version="1.1" xmlns="http://www.w3.org/2000/svg" width="64" height="64" viewBox="0 0 64 64">
<title>h-podigee-o</title>
<path d="M53.568 28.099c-0.307-0.682-0.702-1.32-1.176-1.899-0.454-0.556-0.984-1.044-1.576-1.451-0.535-0.366-1.119-0.652-1.736-0.851-2.855-6.485-9.14-10.789-16.219-11.107-0.808-0.037-1.618-0.022-2.425 0.045-0.789 0.066-1.573 0.182-2.348 0.347-2.261 0.483-4.412 1.383-6.341 2.655-2.541 1.675-4.635 3.943-6.104 6.608-0.184 0.336-0.358 0.675-0.521 1.018-0.041 0.086-0.081 0.173-0.121 0.26l-0.052 0.116c-0.012 0.025-0.017 0.050-0.040 0.063-0.022 0.010-0.045 0.017-0.069 0.023-0.168 0.056-0.33 0.117-0.491 0.185-0.649 0.278-1.252 0.652-1.789 1.11-0.553 0.474-1.038 1.021-1.441 1.628-0.42 0.631-0.758 1.314-1.004 2.031-0.26 0.758-0.423 1.547-0.485 2.346-0.066 0.818-0.028 1.64 0.112 2.449 0.133 0.765 0.361 1.51 0.679 2.218 0.303 0.674 0.693 1.306 1.159 1.88 0.447 0.551 0.97 1.037 1.552 1.443 0.57 0.397 1.197 0.702 1.861 0.906 0.168 0.051 0.544 0.137 0.56 0.157s0.083 0.153 0.109 0.199c0.049 0.088 0.099 0.176 0.149 0.264 0.202 0.35 0.414 0.692 0.638 1.028 2.251 3.388 5.547 5.947 9.386 7.29 0.389 0.136 0.781 0.259 1.176 0.368 0.1 0.028 0.2 0.056 0.3 0.080l0.076 0.020c0.013 0.003 0.066 0.008 0.075 0.018s0.008 0.047 0.011 0.060c0.005 0.024 0.009 0.049 0.015 0.073 0.036 0.163 0.090 0.321 0.16 0.471 0.268 0.569 0.789 0.93 1.372 1.129 0.683 0.234 1.421 0.286 2.138 0.307s1.443 0.022 2.161-0.029c0.632-0.044 1.281-0.131 1.869-0.377 0.521-0.218 0.973-0.582 1.202-1.109 0.124-0.302 0.189-0.625 0.189-0.952 0.015-0.407-0.035-0.814-0.147-1.206-0.084-0.291-0.238-0.557-0.448-0.774-0.049-0.048-0.1-0.093-0.154-0.135-0.025-0.023-0.053-0.044-0.083-0.059-0.041-0.016-0.127 0.022-0.171 0.032-0.243 0.058-0.489 0.11-0.735 0.157-1.999 0.371-4.051 0.346-6.040-0.074-2.977-0.632-5.7-2.133-7.825-4.312-1.404-1.438-2.513-3.136-3.264-5-0.358-0.889-0.632-1.809-0.818-2.749-0.973-4.891 0.485-9.95 3.91-13.573 0.692-0.73 1.452-1.393 2.271-1.979 2.48-1.77 5.432-2.76 8.478-2.844 8.508-0.24 15.601 6.462 15.841 14.971 0.034 1.219-0.076 2.438-0.329 3.631-0.197 0.932-0.928 3.264-0.929 3.368 0 0.19 0.003 0.379 0.020 0.568 0.025 0.289 0.075 0.594 0.227 0.846 0.123 0.208 0.331 0.352 0.57 0.392 0.156 0.021 0.313 0.025 0.47 0.012 0.172-0.007 0.345-0.021 0.516-0.042 0.675-0.085 1.333-0.277 1.948-0.568 0.617-0.294 1.189-0.675 1.697-1.133 0.524-0.473 0.983-1.013 1.366-1.606 0.399-0.62 0.718-1.287 0.952-1.986 0.247-0.735 0.402-1.498 0.464-2.271 0.065-0.816 0.027-1.637-0.112-2.443-0.133-0.774-0.364-1.529-0.687-2.245z"></path>
<path d="M42.265 30.823h-5.133c-0.456 0-0.87 0.264-1.064 0.677l-2.078 4.424-2.376-11.81c-0.073-0.368-0.317-0.68-0.657-0.838-0.589-0.274-1.288-0.019-1.562 0.57l-3.274 6.978h-4.387c-0.649 0-1.176 0.527-1.176 1.176s0.526 1.176 1.176 1.176h5.135c0.456-0 0.87-0.264 1.064-0.677l2.078-4.424 2.376 11.81c0.1 0.498 0.508 0.876 1.013 0.936 0.047 0.006 0.094 0.009 0.142 0.009 0.456 0 0.871-0.264 1.065-0.677l3.275-6.978h4.385c0.65 0 1.176-0.526 1.176-1.176s-0.527-1.176-1.176-1.176z"></path>
</svg>
