<!-- Generated by IcoMoon.io -->
<svg version="1.1" xmlns="http://www.w3.org/2000/svg" width="64" height="64" viewBox="0 0 64 64">
<title>h-podigee</title>
<path d="M52.592 4h-41.184c-4.091 0-7.408 3.317-7.408 7.408v41.184c0 4.091 3.317 7.408 7.408 7.408h41.184c4.091 0 7.408-3.317 7.408-7.408v-41.184c-0-4.092-3.317-7.408-7.408-7.408zM42.265 33.175h-4.385l-3.275 6.978c-0.194 0.413-0.609 0.677-1.065 0.677-0.047 0-0.095-0.003-0.142-0.009-0.505-0.060-0.913-0.438-1.013-0.936l-2.376-11.81-2.078 4.424c-0.194 0.413-0.608 0.677-1.064 0.677h-5.135c-0.649 0-1.176-0.526-1.176-1.176s0.526-1.176 1.176-1.176h4.387l3.274-6.978c0.274-0.589 0.974-0.844 1.562-0.57 0.34 0.158 0.585 0.47 0.657 0.838l2.376 11.81 2.078-4.424c0.193-0.413 0.608-0.677 1.064-0.677h5.133c0.65 0 1.176 0.526 1.176 1.176s-0.526 1.176-1.176 1.176zM54.366 32.787c-0.061 0.773-0.217 1.536-0.464 2.271-0.234 0.699-0.553 1.366-0.952 1.986-0.383 0.593-0.842 1.133-1.366 1.606-0.508 0.458-1.080 0.84-1.697 1.133-0.615 0.292-1.273 0.484-1.948 0.568-0.171 0.021-0.344 0.036-0.516 0.042-0.157 0.013-0.314 0.010-0.47-0.012-0.239-0.040-0.447-0.184-0.57-0.392-0.152-0.252-0.202-0.558-0.227-0.846-0.017-0.189-0.020-0.378-0.020-0.568 0.001-0.105 0.731-2.437 0.929-3.368 0.253-1.193 0.363-2.412 0.329-3.631-0.24-8.508-7.332-15.211-15.841-14.97-3.046 0.084-5.997 1.075-8.478 2.844-0.818 0.585-1.579 1.248-2.271 1.979-3.426 3.623-4.883 8.682-3.91 13.573 0.186 0.94 0.459 1.861 0.818 2.749 0.752 1.864 1.86 3.562 3.264 5 2.125 2.179 4.848 3.68 7.825 4.312 1.989 0.42 4.042 0.445 6.040 0.074 0.247-0.046 0.492-0.098 0.735-0.157 0.045-0.010 0.13-0.048 0.171-0.032 0.030 0.016 0.058 0.036 0.083 0.059 0.054 0.042 0.106 0.087 0.154 0.135 0.21 0.218 0.364 0.483 0.448 0.774 0.112 0.392 0.162 0.799 0.147 1.206-0.001 0.327-0.065 0.65-0.189 0.952-0.228 0.527-0.68 0.891-1.202 1.109-0.589 0.247-1.237 0.333-1.869 0.377-0.718 0.050-1.444 0.050-2.161 0.029s-1.455-0.074-2.138-0.307c-0.582-0.199-1.103-0.56-1.372-1.129-0.070-0.151-0.124-0.309-0.16-0.471-0.006-0.024-0.011-0.048-0.015-0.073-0.003-0.013-0.002-0.049-0.011-0.060s-0.062-0.015-0.075-0.018l-0.076-0.020c-0.1-0.024-0.2-0.053-0.3-0.080-0.395-0.11-0.787-0.232-1.176-0.368-3.839-1.343-7.135-3.903-9.386-7.29-0.224-0.336-0.436-0.679-0.638-1.028-0.050-0.088-0.1-0.176-0.149-0.264-0.026-0.046-0.094-0.179-0.109-0.199s-0.392-0.106-0.56-0.157c-0.663-0.204-1.291-0.51-1.861-0.906-0.582-0.406-1.105-0.892-1.552-1.443-0.466-0.574-0.856-1.206-1.159-1.88-0.319-0.708-0.547-1.453-0.679-2.218-0.14-0.808-0.178-1.631-0.112-2.449 0.062-0.799 0.225-1.588 0.485-2.346 0.246-0.718 0.583-1.4 1.004-2.031 0.403-0.606 0.889-1.154 1.441-1.628 0.537-0.458 1.14-0.832 1.789-1.11 0.161-0.068 0.323-0.129 0.491-0.185 0.024-0.006 0.047-0.013 0.069-0.023 0.023-0.013 0.029-0.038 0.040-0.063l0.052-0.116c0.040-0.087 0.080-0.174 0.121-0.26 0.163-0.343 0.336-0.683 0.521-1.018 1.469-2.665 3.563-4.933 6.104-6.608 1.93-1.273 4.081-2.173 6.341-2.655 0.774-0.165 1.559-0.281 2.348-0.347 0.806-0.067 1.616-0.082 2.425-0.045 7.078 0.317 13.364 4.622 16.219 11.107 0.617 0.199 1.201 0.485 1.736 0.851 0.591 0.406 1.122 0.895 1.576 1.45 0.474 0.579 0.869 1.217 1.176 1.899 0.323 0.716 0.553 1.471 0.686 2.245 0.14 0.806 0.178 1.627 0.113 2.443z"></path>
</svg>
