<!-- Generated by IcoMoon.io -->
<svg version="1.1" xmlns="http://www.w3.org/2000/svg" width="64" height="64" viewBox="0 0 64 64">
<title>h-podomatic</title>
<path d="M57.694 22.315c-0.825-2.216-1.907-4.254-3.284-6.155-0.052-0.282-0.258-0.474-0.424-0.68-7.106-8.833-16.287-12.482-27.428-10.412-14.107 2.622-23.678 16.129-21.827 30.398 0.946 7.294 4.35 13.239 9.992 17.925 0.261 0.217 0.537 0.417 0.901 0.699 0-0.376 0-0.601 0-0.825-0-6.624 0.001-13.248-0.003-19.873-0.001-1.577 0.053-3.143 0.367-4.699 0.858-4.244 2.773-7.845 6.442-10.285 2.351-1.564 4.955-2.537 7.813-2.806 4.020-0.379 7.722 0.465 11.084 2.702 2.294 1.527 4.054 3.56 5.418 5.945 0.885 1.873 1.458 3.822 1.672 5.897 0.881 8.553-4.796 14.756-10.361 16.971-2.636 1.049-5.369 1.191-8.16 0.907-0.529-0.054-0.696-0.172-0.691-0.723 0.023-2.35-0.007-4.7-0.018-7.050 0-1.697 0-3.394 0-5.209 0.282 0.166 0.438 0.252 0.589 0.348 1.623 1.028 3.379 1.006 4.847-0.060 1.55-1.126 2.261-3.053 1.79-4.847-0.556-2.117-2.431-3.43-4.803-3.362-2.081 0.059-3.605 1.422-3.963 3.785-0.532 3.514-0.192 7.061-0.223 10.594-0.010 0.208-0.028 0.415-0.028 0.622-0.002 5.436 0.009 10.872-0.019 16.307-0.003 0.575 0.2 0.738 0.709 0.807 2.461 0.335 4.917 0.353 7.383 0.038 4.005-0.51 7.722-1.818 11.124-3.98 4.997-3.175 8.635-7.481 10.85-13.007 1.188-2.963 1.884-6.015 2.026-9.182 0.167-3.71-0.475-7.292-1.777-10.789z"></path>
</svg>
